<?xml version="1.0" encoding="UTF-8" standalone="no"?>
<!-- Created with Inkscape (http://www.inkscape.org/) -->

<svg
   xmlns:dc="http://purl.org/dc/elements/1.1/"
   xmlns:cc="http://creativecommons.org/ns#"
   xmlns:rdf="http://www.w3.org/1999/02/22-rdf-syntax-ns#"
   xmlns:svg="http://www.w3.org/2000/svg"
   xmlns="http://www.w3.org/2000/svg"
   xmlns:sodipodi="http://sodipodi.sourceforge.net/DTD/sodipodi-0.dtd"
   xmlns:inkscape="http://www.inkscape.org/namespaces/inkscape"
   width="30mm"
   height="30mm"
   viewBox="0 0 30 30"
   version="1.1"
   id="svg3870"
   inkscape:version="0.92.3 (2405546, 2018-03-11)"
   sodipodi:docname="AutoScaleIcon.svg">
  <defs
     id="defs3864">
    <clipPath
       id="clipPath">
      <rect
         style="fill:#999999;fill-opacity:1;stroke:none;stroke-width:0.29166666"
         id="rect898"
         width="30"
         height="30"
         x="21.922617"
         y="161.89925" />
    </clipPath>
  </defs>
  <sodipodi:namedview
     id="base"
     pagecolor="#ffffff"
     bordercolor="#666666"
     borderopacity="1.0"
     inkscape:pageopacity="0.0"
     inkscape:pageshadow="2"
     inkscape:zoom="0.35"
     inkscape:cx="-112.85714"
     inkscape:cy="560"
     inkscape:document-units="mm"
     inkscape:current-layer="layer1"
     showgrid="false"
     inkscape:window-width="1920"
     inkscape:window-height="1021"
     inkscape:window-x="0"
     inkscape:window-y="0"
     inkscape:window-maximized="1" />
  <metadata
     id="metadata3867">
    <rdf:RDF>
      <cc:Work
         rdf:about="">
        <dc:format>image/svg+xml</dc:format>
        <dc:type
           rdf:resource="http://purl.org/dc/dcmitype/StillImage" />
        <dc:title></dc:title>
      </cc:Work>
    </rdf:RDF>
  </metadata>
  <g
     inkscape:label="Layer 1"
     inkscape:groupmode="layer"
     id="layer1"
     transform="translate(0,-267)">
    <g
       transform="translate(-22.678567,12.744967)"
       id="g2623">
      <g
         transform="matrix(1,0,0,0.73704285,0.75595238,142.0651)"
         id="g2537">
        <path
           transform="matrix(0.76836641,0,0,1,8.5525184,0)"
           inkscape:connector-curvature="0"
           style="fill:#666666;fill-opacity:1;stroke:none;stroke-width:0.29166666"
           d="m 21.922617,191.89925 v -0.54947 c 0.909091,-0.26658 1.818182,-0.69474 2.727273,-1.51219 0.909091,-0.81745 1.818182,-2.04478 2.727272,-3.87628 0.909091,-1.83151 1.818182,-4.29725 2.727273,-7.19011 0.909091,-2.89286 1.818182,-6.20519 2.727273,-9.15167 0.909091,-2.94647 1.818182,-5.46425 2.727273,-6.74476 0.909091,-1.28051 1.818181,-1.27812 2.727272,0 0.909091,1.27812 1.818182,3.79908 2.727273,6.74476 0.909091,2.94568 1.818182,6.25806 2.727273,9.15167 0.909091,2.89361 1.818182,5.35743 2.727273,7.19011 0.90909,1.83268 1.818181,3.05804 2.727272,3.87628 0.909091,0.81824 1.818182,1.24561 2.727273,1.51219 v 0.54947"
           title="exp(-x*x)"
           clip-path="url(#clipPath)"
           id="path2533" />
        <path
           inkscape:connector-curvature="0"
           id="path2535"
           d="M 21.922617,191.90727 H 51.922613"
           style="fill:none;stroke:#000000;stroke-width:1;stroke-linecap:butt;stroke-linejoin:miter;stroke-opacity:1" />
      </g>
      <g
         transform="matrix(0.68599545,0,0,0.38979826,-5.7653876,157.34059)"
         id="g2548">
        <path
           style="fill:#000000;fill-opacity:1;stroke:none;stroke-width:1.92619574;stroke-opacity:1"
           inkscape:transform-center-y="-2.5100751"
           d="m 63.338589,249.59571 3.605514,7.54955 3.596324,7.54956 -7.201838,-4.80846 -7.237393,4.80846 3.623292,-7.54956 z"
           id="path2539"
           inkscape:connector-curvature="0"
           sodipodi:nodetypes="ccccccc"
           inkscape:transform-center-x="0.008989" />
        <path
           inkscape:transform-center-x="-0.008989"
           sodipodi:nodetypes="ccccccc"
           inkscape:connector-curvature="0"
           id="path2541"
           d="m 63.321012,290.88165 -3.605514,-7.54955 -3.596324,-7.54956 7.201838,4.80846 7.237393,-4.80846 -3.623292,7.54956 z"
           inkscape:transform-center-y="2.5100749"
           style="fill:#000000;fill-opacity:1;stroke:none;stroke-width:1.92619574;stroke-opacity:1" />
        <path
           style="fill:none;stroke:#000000;stroke-width:6;stroke-linecap:butt;stroke-linejoin:miter;stroke-opacity:1"
           d="m 63.338587,259.88636 -0.01757,20.70463"
           id="path2543"
           inkscape:connector-curvature="0" />
      </g>
    </g>
  </g>
</svg>
