<?xml version="1.0" encoding="UTF-8" standalone="no"?>
<!-- Created with Inkscape (http://www.inkscape.org/) -->

<svg
   xmlns:dc="http://purl.org/dc/elements/1.1/"
   xmlns:cc="http://creativecommons.org/ns#"
   xmlns:rdf="http://www.w3.org/1999/02/22-rdf-syntax-ns#"
   xmlns:svg="http://www.w3.org/2000/svg"
   xmlns="http://www.w3.org/2000/svg"
   xmlns:sodipodi="http://sodipodi.sourceforge.net/DTD/sodipodi-0.dtd"
   xmlns:inkscape="http://www.inkscape.org/namespaces/inkscape"
   width="30mm"
   height="30mm"
   viewBox="0 0 30 30"
   version="1.1"
   id="svg5675"
   inkscape:version="0.92.3 (2405546, 2018-03-11)"
   sodipodi:docname="NetAreaIcon.svg">
  <defs
     id="defs5669">
    <clipPath
       id="clipPath">
      <rect
         style="fill:#999999;fill-opacity:1;stroke:none;stroke-width:0.29166666"
         id="rect898"
         width="30"
         height="30"
         x="21.922617"
         y="161.89925" />
    </clipPath>
  </defs>
  <sodipodi:namedview
     id="base"
     pagecolor="#ffffff"
     bordercolor="#666666"
     borderopacity="1.0"
     inkscape:pageopacity="0.0"
     inkscape:pageshadow="2"
     inkscape:zoom="0.35"
     inkscape:cx="-112.85714"
     inkscape:cy="560"
     inkscape:document-units="mm"
     inkscape:current-layer="layer1"
     showgrid="false"
     inkscape:window-width="1920"
     inkscape:window-height="1021"
     inkscape:window-x="0"
     inkscape:window-y="0"
     inkscape:window-maximized="1" />
  <metadata
     id="metadata5672">
    <rdf:RDF>
      <cc:Work
         rdf:about="">
        <dc:format>image/svg+xml</dc:format>
        <dc:type
           rdf:resource="http://purl.org/dc/dcmitype/StillImage" />
        <dc:title></dc:title>
      </cc:Work>
    </rdf:RDF>
  </metadata>
  <g
     inkscape:label="Layer 1"
     inkscape:groupmode="layer"
     id="layer1"
     transform="translate(0,-267)">
    <g
       transform="translate(-21.922615,104.83872)"
       id="g2608">
      <g
         id="g2495">
        <path
           id="path2455"
           clip-path="url(#clipPath)"
           title="exp(-x*x)"
           d="m 21.922617,191.89925 v -0.54947 c 0.909091,-0.26658 1.818182,-0.69474 2.727273,-1.51219 0.909091,-0.81745 1.818182,-2.04478 2.727272,-3.87628 0.909091,-1.83151 1.818182,-4.29725 2.727273,-7.19011 0.909091,-2.89286 1.818182,-6.20519 2.727273,-9.15167 0.909091,-2.94647 1.818182,-5.46425 2.727273,-6.74476 0.909091,-1.28051 1.818181,-1.27812 2.727272,0 0.909091,1.27812 1.818182,3.79908 2.727273,6.74476 0.909091,2.94568 1.818182,6.25806 2.727273,9.15167 0.909091,2.89361 1.818182,5.35743 2.727273,7.19011 0.90909,1.83268 1.818181,3.05804 2.727272,3.87628 0.909091,0.81824 1.818182,1.24561 2.727273,1.51219 v 0.54947"
           style="fill:#666666;fill-opacity:1;stroke:none;stroke-width:0.29166666"
           inkscape:connector-curvature="0"
           transform="matrix(0.76836641,0,0,1,8.5525184,0)" />
        <path
           style="fill:none;stroke:#000000;stroke-width:1;stroke-linecap:butt;stroke-linejoin:miter;stroke-opacity:1"
           d="M 21.922617,191.90727 H 51.922613"
           id="path2491"
           inkscape:connector-curvature="0" />
      </g>
    </g>
  </g>
</svg>
