<?xml version="1.0" encoding="UTF-8" standalone="no"?>
<!-- Created with Inkscape (http://www.inkscape.org/) -->

<svg
   xmlns:dc="http://purl.org/dc/elements/1.1/"
   xmlns:cc="http://creativecommons.org/ns#"
   xmlns:rdf="http://www.w3.org/1999/02/22-rdf-syntax-ns#"
   xmlns:svg="http://www.w3.org/2000/svg"
   xmlns="http://www.w3.org/2000/svg"
   xmlns:sodipodi="http://sodipodi.sourceforge.net/DTD/sodipodi-0.dtd"
   xmlns:inkscape="http://www.inkscape.org/namespaces/inkscape"
   width="1940.3959"
   height="785.51544"
   id="svg2"
   version="1.1"
   inkscape:version="0.91 r"
   sodipodi:docname="FENRISLogo.svg">
  <defs
     id="defs4">
    <clipPath
       clipPathUnits="userSpaceOnUse"
       id="clipPath3007">
      <rect
         style="fill:#ff0000;fill-opacity:1"
         id="rect3009"
         width="428.57144"
         height="745.71429"
         x="548.73334"
         y="-458.04761"
         ry="0"
         transform="matrix(0.86981129,0.49338455,-0.49338455,0.86981129,0,0)" />
    </clipPath>
    <clipPath
       clipPathUnits="userSpaceOnUse"
       id="clipPath3054">
      <rect
         style="fill:#ff0000;fill-opacity:1"
         id="rect3056"
         width="962.85712"
         height="700"
         x="-682.18414"
         y="248.14343"
         transform="matrix(-0.04750096,-0.99887119,0.99887119,-0.04750096,0,0)" />
    </clipPath>
  </defs>
  <sodipodi:namedview
     id="base"
     pagecolor="#ffffff"
     bordercolor="#666666"
     borderopacity="1.0"
     inkscape:pageopacity="0.0"
     inkscape:pageshadow="2"
     inkscape:zoom="0.49497475"
     inkscape:cx="1135.2417"
     inkscape:cy="569.76256"
     inkscape:document-units="px"
     inkscape:current-layer="layer1"
     showgrid="false"
     showborder="true"
     inkscape:snap-bbox="true"
     inkscape:snap-bbox-edge-midpoints="true"
     inkscape:object-paths="false"
     inkscape:snap-midpoints="false"
     inkscape:snap-global="true"
     inkscape:object-nodes="true"
     inkscape:window-width="1920"
     inkscape:window-height="1031"
     inkscape:window-x="-2"
     inkscape:window-y="-3"
     inkscape:window-maximized="1"
     fit-margin-top="0"
     fit-margin-left="0"
     fit-margin-right="0"
     fit-margin-bottom="0"
     borderlayer="false"
     inkscape:showpageshadow="true" />
  <metadata
     id="metadata7">
    <rdf:RDF>
      <cc:Work
         rdf:about="">
        <dc:format>image/svg+xml</dc:format>
        <dc:type
           rdf:resource="http://purl.org/dc/dcmitype/StillImage" />
        <dc:title />
      </cc:Work>
    </rdf:RDF>
  </metadata>
  <g
     inkscape:groupmode="layer"
     id="layer2"
     inkscape:label="Invisible"
     style="display:inline"
     transform="translate(1606.1594,-842.64789)">
    <path
       sodipodi:nodetypes="czzccc"
       inkscape:connector-curvature="0"
       id="path3850"
       d="m -1053.8341,997.79075 c 0,0 378.10759,0 476.11981,0 98.01222,0 130.75755,34.51895 131.94415,110.71425 1.1866,76.1953 0,81.4286 0,81.4286 -1.30159,74.46 29.83945,108.3667 89.48443,106.6434 l 193.42857,0"
       style="fill:none;stroke:#e41b1b;stroke-width:10;stroke-linecap:butt;stroke-linejoin:miter;stroke-opacity:1" />
    <path
       style="fill:none;stroke:#e41b1b;stroke-width:8;stroke-linecap:butt;stroke-linejoin:miter;stroke-miterlimit:4;stroke-opacity:1;stroke-dasharray:none"
       d="m -1223.6973,998.02724 -16.7869,-0.23649 -359.5974,0"
       id="path4043"
       inkscape:connector-curvature="0"
       sodipodi:nodetypes="ccc" />
  </g>
  <g
     inkscape:label="Layer 1"
     inkscape:groupmode="layer"
     id="layer1"
     transform="translate(1606.1594,-842.64789)">
    <path
       style="fill:none;stroke:#000000;stroke-width:8;stroke-opacity:1"
       d="m -678.57143,1049.505 c 0,50.6514 -40.77715,91.4286 -91.42858,91.4286 l -738.57139,0 c -50.6515,0 -91.4286,-40.7772 -91.4286,-91.4286 m 0,-111.42854 c 0,-50.65143 40.7771,-91.42857 91.4286,-91.42857 l 738.57139,0 c 50.65143,0 91.42858,40.77714 91.42858,91.42857"
       id="rect3842"
       inkscape:connector-curvature="0"
       sodipodi:nodetypes="cccccccc" />
    <path
       sodipodi:nodetypes="cc"
       inkscape:connector-curvature="0"
       id="path3844"
       d="m -555.71429,883.07646 c 122.29162,0 221.42857,99.13694 221.42858,221.42854"
       style="fill:none;stroke:#000000;stroke-width:8;stroke-opacity:1" />
    <path
       sodipodi:nodetypes="cc"
       inkscape:connector-curvature="0"
       id="path3846"
       d="m -334.28571,1407.3622 c -122.29162,0 -221.42857,-99.137 -221.42858,-221.4286"
       style="fill:none;stroke:#000000;stroke-width:8;stroke-opacity:1" />
    <path
       transform="matrix(-0.93767304,-0.34751875,0.34751875,-0.93767304,215.27775,2052.513)"
       sodipodi:open="true"
       sodipodi:end="4.0081286"
       sodipodi:start="0.30298823"
       d="M 712.18525,693.69546 A 234.28572,234.28572 0 0 1 496.24558,857.95077 234.28572,234.28572 0 0 1 270.01454,708.18673 234.28572,234.28572 0 0 1 336.87838,445.24382"
       sodipodi:ry="234.28572"
       sodipodi:rx="234.28572"
       sodipodi:cy="623.79077"
       sodipodi:cx="488.57144"
       id="path3848"
       style="fill:none;stroke:#000000;stroke-width:8;stroke-opacity:1"
       sodipodi:type="arc" />
    <path
       transform="matrix(-0.36802012,-0.12750914,0.12750914,-0.36802012,224.09387,1342.2051)"
       d="M 817.78968,430.09941 633.52037,-22.022863 481.23835,441.85203 597.91215,-32.233355 202.05458,253.54019 575.10606,-61.423805 86.877094,-62.907386 573.81327,-98.444454 179.69977,-386.61848 l 414.8278,257.46381 -149.46008,-464.7918 184.26932,452.12227 152.28202,-463.87489 -116.6738,474.08538 395.85757,-285.77354 -373.05149,314.96399 488.22899,1.48359 -486.9362,35.537063 394.1135,288.174027 -414.8278,-257.46381 z"
       inkscape:randomized="0"
       inkscape:rounded="-3.469447e-18"
       inkscape:flatsided="false"
       sodipodi:arg2="1.5358897"
       sodipodi:arg1="1.2217305"
       sodipodi:r2="59.93718"
       sodipodi:r1="544.88342"
       sodipodi:cy="-81.923531"
       sodipodi:cx="631.42859"
       sodipodi:sides="10"
       id="path3886"
       style="fill:#2ba3ff;fill-opacity:1;stroke:none"
       sodipodi:type="star" />
    <path
       sodipodi:type="star"
       style="fill:#e41b1b;fill-opacity:1;stroke:none"
       id="path3884"
       sodipodi:sides="10"
       sodipodi:cx="631.42859"
       sodipodi:cy="-81.923531"
       sodipodi:r1="544.88342"
       sodipodi:r2="78.649376"
       sodipodi:arg1="1.2217305"
       sodipodi:arg2="1.5372639"
       inkscape:flatsided="false"
       inkscape:rounded="-3.469447e-18"
       inkscape:randomized="0"
       d="M 817.78968,430.09941 634.0654,-3.3183681 481.23835,441.85203 587.35886,-16.78074 202.05458,253.54019 557.48546,-55.125444 86.877094,-62.907386 555.85582,-103.70611 179.69977,-386.61848 l 403.39264,242.65192 -138.02492,-449.97991 183.72429,433.41778 152.82705,-445.1704 -106.12051,458.63277 385.30428,-270.32093 -355.43088,308.66563 470.60838,7.78195 L 707.00136,-60.140955 1083.1574,222.77142 679.76477,-19.880496 Z"
       transform="matrix(0.64752059,0.01886812,-0.01886812,0.64752059,-429.13932,1332.975)" />
    <text
       xml:space="preserve"
       style="font-style:normal;font-variant:normal;font-weight:normal;font-stretch:normal;font-size:122.67076874px;line-height:125%;font-family:Sawasdee;-inkscape-font-specification:Sawasdee;text-align:center;letter-spacing:0px;word-spacing:0px;text-anchor:middle;fill:#000000;fill-opacity:1;stroke:none"
       x="-1081.6218"
       y="1403.496"
       id="text3909"
       sodipodi:linespacing="125%"><tspan
         sodipodi:role="line"
         x="-1081.6218"
         y="1403.496"
         id="tspan4161"
         style="font-size:180px">FENRIS</tspan></text>
    <g
       style="display:inline"
       id="g4033">
      <path
         inkscape:connector-curvature="0"
         id="path3979"
         d="m -1189.8561,1013.6892 c -27.7257,-48.01997 -50.4884,-87.53334 -50.5837,-87.80746 -0.1088,-0.31299 7.8186,-0.49268 21.3083,-0.48301 l 21.4815,0.0154 39.7581,68.91305 c 21.867,37.90222 39.8215,69.07342 39.899,69.26932 0.1253,0.3168 -20.2982,36.1305 -21.1207,37.0363 -0.1826,0.201 -23.0167,-38.9236 -50.7425,-86.9435 l 0,0 z"
         style="fill:#e41b1b;fill-opacity:1;stroke:#000000;stroke-opacity:1" />
      <path
         inkscape:connector-curvature="0"
         id="path3981"
         d="m -1127.7484,1043.9917 c -5.8598,-10.1761 -10.5803,-18.7497 -10.4901,-19.0524 0.09,-0.3028 17.9814,-31.46886 39.7581,-69.25804 l 39.594,-68.70759 21.4383,-0.0246 c 11.791,-0.0135 21.4382,0.10943 21.4382,0.27321 0,0.26161 -98.0338,170.34252 -100.229,173.88932 l -0.8554,1.3822 -10.6541,-18.5021 z"
         style="fill:#2ba3ff;fill-opacity:1;stroke:#000000;stroke-opacity:1" />
      <path
         inkscape:connector-curvature="0"
         id="path3983"
         d="m -1195.9589,924.3282 c -24.9178,-0.13959 -45.3705,-0.31925 -45.4506,-0.39925 -0.08,-0.08 -4.8719,-8.32964 -10.6487,-18.33252 l -10.5033,-18.18708 100.7568,-0.0925 c 55.4161,-0.0509 100.8165,-0.0327 100.8895,0.0403 0.073,0.0731 -4.699,8.50735 -10.6046,18.74282 l -10.7376,18.60995 -34.1982,-0.0639 c -18.809,-0.0351 -54.5855,-0.17818 -79.5033,-0.31777 l 0,0 z"
         style="fill:#1010ef;fill-opacity:1;stroke:#000000;stroke-opacity:1" />
    </g>
  </g>
</svg>
