<?xml version="1.0" encoding="UTF-8" standalone="no"?>
<!-- Created with Inkscape (http://www.inkscape.org/) -->

<svg
   width="51.282509cm"
   height="20.78343cm"
   id="svg2"
   version="1.1"
   inkscape:version="1.4.1 (unknown)"
   sodipodi:docname="FENRISLogo-notext-running.svg"
   inkscape:export-filename="FENRISLogo-notext-running.png"
   inkscape:export-xdpi="11.887094"
   inkscape:export-ydpi="11.887094"
   xmlns:inkscape="http://www.inkscape.org/namespaces/inkscape"
   xmlns:sodipodi="http://sodipodi.sourceforge.net/DTD/sodipodi-0.dtd"
   xmlns="http://www.w3.org/2000/svg"
   xmlns:svg="http://www.w3.org/2000/svg"
   xmlns:rdf="http://www.w3.org/1999/02/22-rdf-syntax-ns#"
   xmlns:cc="http://creativecommons.org/ns#"
   xmlns:dc="http://purl.org/dc/elements/1.1/">
  <defs
     id="defs4">
    <clipPath
       clipPathUnits="userSpaceOnUse"
       id="clipPath3007">
      <rect
         style="fill:#ff0000;fill-opacity:1"
         id="rect3009"
         width="428.57144"
         height="745.71429"
         x="548.73334"
         y="-458.04761"
         ry="0"
         transform="rotate(29.563282)" />
    </clipPath>
    <clipPath
       clipPathUnits="userSpaceOnUse"
       id="clipPath3054">
      <rect
         style="fill:#ff0000;fill-opacity:1"
         id="rect3056"
         width="962.85712"
         height="700"
         x="-682.18414"
         y="248.14343"
         transform="rotate(-92.722629)" />
    </clipPath>
  </defs>
  <sodipodi:namedview
     id="base"
     pagecolor="#ffffff"
     bordercolor="#666666"
     borderopacity="1.0"
     inkscape:pageopacity="0.0"
     inkscape:pageshadow="2"
     inkscape:zoom="0.49497475"
     inkscape:cx="295.97469"
     inkscape:cy="602.05091"
     inkscape:document-units="px"
     inkscape:current-layer="layer2"
     showgrid="false"
     showborder="true"
     inkscape:snap-bbox="true"
     inkscape:snap-bbox-edge-midpoints="true"
     inkscape:object-paths="false"
     inkscape:snap-midpoints="false"
     inkscape:snap-global="false"
     inkscape:object-nodes="true"
     inkscape:window-width="1920"
     inkscape:window-height="1014"
     inkscape:window-x="0"
     inkscape:window-y="0"
     inkscape:window-maximized="1"
     fit-margin-top="0"
     fit-margin-left="0"
     fit-margin-right="0"
     fit-margin-bottom="0"
     borderlayer="false"
     inkscape:showpageshadow="true"
     units="cm"
     inkscape:pagecheckerboard="0"
     inkscape:deskcolor="#d1d1d1" />
  <metadata
     id="metadata7">
    <rdf:RDF>
      <cc:Work
         rdf:about="">
        <dc:format>image/svg+xml</dc:format>
        <dc:type
           rdf:resource="http://purl.org/dc/dcmitype/StillImage" />
        <dc:title />
      </cc:Work>
    </rdf:RDF>
  </metadata>
  <g
     inkscape:groupmode="layer"
     id="layer2"
     inkscape:label="Invisible"
     style="display:inline"
     transform="translate(1604,-842.64789)">
    <path
       sodipodi:nodetypes="czzccc"
       inkscape:connector-curvature="0"
       id="path3850"
       d="m -1053.8341,997.79075 c 0,0 378.10759,0 476.11981,0 98.01222,0 130.75755,34.51895 131.94415,110.71425 1.1866,76.1953 0,81.4286 0,81.4286 -1.30159,74.46 29.83945,108.3667 89.48443,106.6434 h 193.42857"
       style="fill:none;stroke:#008000;stroke-width:10;stroke-linecap:butt;stroke-linejoin:miter;stroke-opacity:1" />
    <path
       style="fill:none;stroke:#008000;stroke-width:8;stroke-linecap:butt;stroke-linejoin:miter;stroke-miterlimit:4;stroke-dasharray:none;stroke-opacity:1"
       d="m -1223.6973,998.02724 -16.7869,-0.23649 h -359.5974"
       id="path4043"
       inkscape:connector-curvature="0"
       sodipodi:nodetypes="ccc" />
  </g>
  <g
     inkscape:label="Layer 1"
     inkscape:groupmode="layer"
     id="layer1"
     transform="translate(1604,-842.64789)">
    <path
       style="fill:none;stroke:#000000;stroke-width:8;stroke-opacity:1"
       d="m -678.57143,1049.505 c 0,50.6514 -40.77715,91.4286 -91.42858,91.4286 h -738.57139 c -50.6515,0 -91.4286,-40.7772 -91.4286,-91.4286 m 0,-111.42854 c 0,-50.65143 40.7771,-91.42857 91.4286,-91.42857 h 738.57139 c 50.65143,0 91.42858,40.77714 91.42858,91.42857"
       id="rect3842"
       inkscape:connector-curvature="0"
       sodipodi:nodetypes="cccccccc" />
    <path
       sodipodi:nodetypes="cc"
       inkscape:connector-curvature="0"
       id="path3844"
       d="m -555.71429,883.07646 c 122.29162,0 221.42857,99.13694 221.42858,221.42854"
       style="fill:none;stroke:#000000;stroke-width:8;stroke-opacity:1" />
    <path
       sodipodi:nodetypes="cc"
       inkscape:connector-curvature="0"
       id="path3846"
       d="m -334.28571,1407.3622 c -122.29162,0 -221.42857,-99.137 -221.42858,-221.4286"
       style="fill:none;stroke:#000000;stroke-width:8;stroke-opacity:1" />
    <path
       transform="rotate(-159.66437,291.69644,1006.9516)"
       sodipodi:open="true"
       sodipodi:end="4.0081286"
       sodipodi:start="0.30298823"
       d="M 712.18525,693.69546 A 234.28572,234.28572 0 0 1 496.24558,857.95077 234.28572,234.28572 0 0 1 270.01454,708.18673 234.28572,234.28572 0 0 1 336.87838,445.24382"
       sodipodi:ry="234.28572"
       sodipodi:rx="234.28572"
       sodipodi:cy="623.79077"
       sodipodi:cx="488.57144"
       id="path3848"
       style="fill:none;stroke:#000000;stroke-width:8;stroke-opacity:1"
       sodipodi:type="arc" />
    <path
       transform="matrix(-0.36802012,-0.12750914,0.12750914,-0.36802012,224.09387,1342.2051)"
       d="M 817.78968,430.09941 633.52037,-22.022863 481.23835,441.85203 597.91215,-32.233355 202.05458,253.54019 575.10606,-61.423805 86.877094,-62.907386 573.81327,-98.444454 179.69977,-386.61848 l 414.8278,257.46381 -149.46008,-464.7918 184.26932,452.12227 152.28202,-463.87489 -116.6738,474.08538 395.85757,-285.77354 -373.05149,314.96399 488.22899,1.48359 -486.9362,35.537063 394.1135,288.174027 -414.8278,-257.46381 z"
       inkscape:randomized="0"
       inkscape:rounded="-3.469447e-18"
       inkscape:flatsided="false"
       sodipodi:arg2="1.5358897"
       sodipodi:arg1="1.2217305"
       sodipodi:r2="59.93718"
       sodipodi:r1="544.88342"
       sodipodi:cy="-81.923531"
       sodipodi:cx="631.42859"
       sodipodi:sides="10"
       id="path3886"
       style="fill:#2ba3ff;fill-opacity:1;stroke:none"
       sodipodi:type="star" />
    <path
       sodipodi:type="star"
       style="fill:#008000;fill-opacity:1;stroke:none"
       id="path3884"
       sodipodi:sides="10"
       sodipodi:cx="631.42859"
       sodipodi:cy="-81.923531"
       sodipodi:r1="544.88342"
       sodipodi:r2="78.649376"
       sodipodi:arg1="1.2217305"
       sodipodi:arg2="1.5372639"
       inkscape:flatsided="false"
       inkscape:rounded="-3.469447e-18"
       inkscape:randomized="0"
       d="M 817.78968,430.09941 634.0654,-3.3183681 481.23835,441.85203 587.35886,-16.78074 202.05458,253.54019 557.48546,-55.125444 86.877094,-62.907386 555.85582,-103.70611 179.69977,-386.61848 l 403.39264,242.65192 -138.02492,-449.97991 183.72429,433.41778 152.82705,-445.1704 -106.12051,458.63277 385.30428,-270.32093 -355.43088,308.66563 470.60838,7.78195 L 707.00136,-60.140955 1083.1574,222.77142 679.76477,-19.880496 Z"
       transform="matrix(0.64752059,0.01886812,-0.01886812,0.64752059,-429.13932,1332.975)" />
    <g
       transform="matrix(10.83475,0,0,10.83475,-2719.9932,335.51367)"
       id="g1453">
      <path
         sodipodi:type="star"
         style="display:inline;opacity:1;fill:#0033c2;fill-opacity:0.97254902"
         id="path4237"
         sodipodi:sides="3"
         sodipodi:cx="157.57861"
         sodipodi:cy="217.3091"
         sodipodi:r1="24.689735"
         sodipodi:r2="12.344868"
         sodipodi:arg1="0.52359878"
         sodipodi:arg2="1.5707963"
         inkscape:flatsided="false"
         inkscape:rounded="0"
         inkscape:randomized="0"
         d="m 178.96055,229.65397 -21.38194,-10e-6 -21.38193,0 10.69096,-18.5173 10.69097,-18.5173 10.69097,18.5173 z"
         inkscape:transform-center-y="-6.1724342"
         transform="matrix(-0.14111111,0.24441161,-0.24441161,-0.14111111,221.24777,49.053591)" />
      <path
         inkscape:transform-center-y="6.1724297"
         d="m 258.83911,213.67826 -21.38194,0 -21.38194,0 10.69097,-18.5173 10.69097,-18.51731 10.69097,18.51731 z"
         inkscape:randomized="0"
         inkscape:rounded="0"
         inkscape:flatsided="false"
         sodipodi:arg2="1.5707963"
         sodipodi:arg1="0.52359878"
         sodipodi:r2="12.344868"
         sodipodi:r1="24.689735"
         sodipodi:cy="201.33339"
         sodipodi:cx="237.45717"
         sodipodi:sides="3"
         id="path4239"
         style="display:inline;opacity:1;fill:#8d0037;fill-opacity:1"
         sodipodi:type="star"
         transform="matrix(0.1411111,0.24441161,-0.24441161,0.1411111,161.5992,-22.576759)" />
      <path
         inkscape:transform-center-y="6.1724338"
         d="m -136.19668,-229.65396 -21.38193,0 -21.38194,0 10.69097,-18.5173 10.69097,-18.5173 10.69097,18.5173 z"
         inkscape:randomized="0"
         inkscape:rounded="0"
         inkscape:flatsided="false"
         sodipodi:arg2="1.5707963"
         sodipodi:arg1="0.52359878"
         sodipodi:r2="12.344868"
         sodipodi:r1="24.689735"
         sodipodi:cy="-241.99883"
         sodipodi:cx="-157.57861"
         sodipodi:sides="3"
         id="path4241"
         style="display:inline;opacity:1;fill:#ef002c;fill-opacity:1"
         sodipodi:type="star"
         transform="matrix(0.14111111,-0.24441161,0.24441161,0.14111111,221.24777,49.053591)" />
      <path
         transform="matrix(0.14111111,-0.24441161,0.24441161,0.14111111,221.24777,49.053591)"
         sodipodi:type="star"
         style="display:inline;opacity:1;fill:#5fc4ef;fill-opacity:1"
         id="path4243"
         sodipodi:sides="3"
         sodipodi:cx="-136.19667"
         sodipodi:cy="-204.96423"
         sodipodi:r1="24.689735"
         sodipodi:r2="12.344868"
         sodipodi:arg1="0.52359878"
         sodipodi:arg2="1.5707963"
         inkscape:flatsided="false"
         inkscape:rounded="0"
         inkscape:randomized="0"
         d="m -114.81473,-192.61937 -21.38194,0 -21.38194,0 10.69097,-18.5173 10.69097,-18.5173 10.69097,18.5173 z"
         inkscape:transform-center-y="6.1724338" />
    </g>
  </g>
</svg>
